# xmcd
#
# Track frame offsets: 
#        150
#        17976
#        32486
#        50141
#        68006
#        87968
#        107657
#        120728
#        140279
#        155985
#
# Disc length: 2425 seconds
#
# Revision: 0
# Processed by: cddbd v1.4PL0 Copyright (c) Steve Scherf et al.
# Submitted via: ExactAudioCopy v0.90a11
#
DISCID=8709770a
DTITLE=Chris de Burgh - Man on the line
DYEAR=1900
DGENRE=
TTITLE0=The ecstasy of flight (I love the night)
TTITLE1=Sight and touch
TTITLE2=Taking it to the top
TTITLE3=The head and the heart
TTITLE4=The sound of a gun
TTITLE5=High on emotion
TTITLE6=Much more than this
TTITLE7=Man on the line
TTITLE8=Moonlight and Vodka
TTITLE9=Transmission ends
EXTD=
EXTT0=
EXTT1=
EXTT2=
EXTT3=
EXTT4=
EXTT5=
EXTT6=
EXTT7=
EXTT8=
EXTT9=
PLAYORDER=
